<svg width="43" height="43" viewBox="0 0 43 43" fill="none" xmlns="http://www.w3.org/2000/svg">
<g clip-path="url(#clip0)">
<path d="M41.0832 17.6357H23.6728C22.9056 17.6357 22.2803 18.2611 22.2803 19.0282V24.5899C22.2803 25.357 22.9056 25.9824 23.6728 25.9824H33.4787C32.403 28.7674 30.4018 31.1022 27.8419 32.5864L32.0195 39.8241C38.7235 35.9467 42.6925 29.1343 42.6925 21.5214C42.6925 20.4374 42.6091 19.662 42.4507 18.7864C42.334 18.1194 41.7586 17.6357 41.0832 17.6357Z" fill="#167EE6"/>
<path d="M21.3459 34.3374C16.543 34.3374 12.3572 31.7192 10.1058 27.8335L2.86816 32.0027C6.55371 38.3898 13.4495 42.6924 21.3459 42.6924C25.2149 42.6924 28.8755 41.6501 32.019 39.8324V39.824L27.8415 32.5863C25.9237 33.6953 23.714 34.3374 21.3459 34.3374Z" fill="#12B347"/>
<path d="M32.0193 39.8324V39.8241L27.8418 32.5864C25.9323 33.6954 23.7143 34.3375 21.3462 34.3375V42.6925C25.2152 42.6925 28.8757 41.6502 32.0193 39.8324Z" fill="#0F993E"/>
<path d="M8.35502 21.3463C8.35502 18.9783 8.99707 16.7686 10.1061 14.8591L2.86839 10.6899C1.04229 13.8168 0 17.4607 0 21.3463C0 25.232 1.04229 28.8759 2.86839 32.0111L10.1061 27.8419C8.99707 25.9241 8.35502 23.7144 8.35502 21.3463Z" fill="#FFD500"/>
<path d="M21.3459 8.35502C24.4728 8.35502 27.3495 9.46402 29.5926 11.3151C30.1429 11.7737 30.9517 11.7404 31.4603 11.2317L35.4044 7.28771C35.9797 6.71236 35.938 5.77013 35.321 5.23648C31.5604 1.97619 26.6658 0 21.3459 0C13.4495 0 6.55371 4.30258 2.86816 10.6814L10.1058 14.8506C12.3572 10.9733 16.543 8.35502 21.3459 8.35502Z" fill="#FF4B26"/>
<path d="M29.5928 11.3151C30.1431 11.7737 30.952 11.7404 31.4606 11.2317L35.4046 7.28771C35.98 6.71236 35.9383 5.77013 35.3213 5.23648C31.5607 1.97619 26.6661 0 21.3462 0V8.35502C24.4731 8.35502 27.3498 9.46402 29.5928 11.3151Z" fill="#D93F21"/>
</g>
<defs>
<clipPath id="clip0">
<rect width="42.6923" height="42.6923" fill="white"/>
</clipPath>
</defs>
</svg>
